#!OML:ASF H:\Dans Jumps\Project 1\Capture day 1\Session 1\subject.ASF
:FULLY-SPECIFIED
:DEGREES
466
root 0.499166 16.9531 -2.60189 8.48761 0.752776 -1.66608
lowerback 4.72892 -0.961016 -0.637284
upperback 6.09089 -1.35335 2.38658
thorax 3.71235 -0.76034 2.84229
lowerneck -12.7572 0.749186 -0.880369
upperneck 33.5938 1.70419 -1.1487
head 13.4442 0.472499 -0.0451737
rclavicle 8.54774e-015 4.77083e-015
rhumerus -17.4579 -13.777 -83.645
rradius 23.2686
rwrist 32.3286
rhand -21.2389 -25.3925
rfingers 7.12502
rthumb 5.14367 -55.3101
lclavicle 8.54774e-015 4.77083e-015
lhumerus -13.9121 -8.78531 91.5342
lradius 18.2098
lwrist 6.78923
lhand -27.4432 -5.97479
lfingers 7.12502
lthumb -0.848173 24.0033
rfemur -28.798 -4.21927 20.5817
rtibia 44.5429
rfoot -20.6055 -9.98033
rtoes 4.29395
lfemur -30.8456 7.88673 -17.7934
ltibia 42.5271
lfoot -19.5509 -1.58454
ltoes -0.0969786
467
root 0.497289 16.9522 -2.60063 8.48725 0.78985 -1.64732
lowerback 4.73954 -0.967096 -0.644474
upperback 6.09094 -1.36139 2.38514
thorax 3.70705 -0.764546 2.84514
lowerneck -12.7765 0.747292 -0.87753
upperneck 33.6128 1.70068 -1.14614
head 13.4567 0.471444 -0.0450919
rclavicle 1.18277e-014 -1.03368e-014
rhumerus -17.4632 -13.7851 -83.6384
rradius 23.268
rwrist 32.3383
rhand -21.2357 -25.3984
rfingers 7.12502
rthumb 5.14681 -55.3159
lclavicle 1.18277e-014 -1.03368e-014
lhumerus -13.9118 -8.78763 91.5314
lradius 18.1929
lwrist 6.7752
lhand -27.4383 -5.95277
lfingers 7.12502
lthumb -0.843398 24.0253
rfemur -28.8024 -4.23633 20.569
rtibia 44.572
rfoot -20.6213 -10.0084
rtoes 4.27079
lfemur -30.8547 7.90555 -17.8102
ltibia 42.5441
lfoot -19.5722 -1.65161
ltoes -0.0513809
468
root 0.495327 16.9513 -2.59941 8.48718 0.826272 -1.62931
lowerback 4.74959 -0.97284 -0.652149
upperback 6.09112 -1.36901 2.38378
thorax 3.70221 -0.768566 2.84832
lowerneck -12.7923 0.744295 -0.87805
upperneck 33.629 1.69523 -1.14025
head 13.4672 0.469608 -0.0434105
rclavicle 4.27387e-015 1.59028e-014
rhumerus -17.4653 -13.8014 -83.6313
rradius 23.259
rwrist 32.3581
rhand -21.2204 -25.4048
rfingers 7.12502
rthumb 5.16155 -55.322
lclavicle 4.27387e-015 1.59028e-014
lhumerus -13.9094 -8.78298 91.528
lradius 18.1763
lwrist 6.76364
lhand -27.4368 -5.94089
lfingers 7.12502
lthumb -0.841915 24.0372
rfemur -28.8075 -4.25008 20.5573
rtibia 44.6011
rfoot -20.6367 -10.0364
rtoes 4.25854
lfemur -30.8651 7.92558 -17.8258
ltibia 42.561
lfoot -19.5921 -1.71998
ltoes 0.00280998
469
root 0.49334 16.9504 -2.59817 8.48686 0.863089 -1.60755
lowerback 4.75953 -0.979042 -0.664333
upperback 6.09139 -1.37731 2.38173
thorax 3.69767 -0.7731 2.85334
lowerneck -12.8056 0.740772 -0.882227
upperneck 33.643 1.68912 -1.132
head 13.4761 0.46737 -0.040261
rclavicle 2.08724e-015 3.10104e-014
rhumerus -17.4653 -13.8207 -83.6235
rradius 23.2443
rwrist 32.385
rhand -21.2178 -25.4038
rfingers 7.12502
rthumb 5.16409 -55.3209
lclavicle 2.08724e-015 3.10104e-014
lhumerus -13.904 -8.76721 91.5232
lradius 18.1619
lwrist 6.7559
lhand -27.4283 -5.92619
lfingers 7.12502
lthumb -0.833776 24.0519
rfemur -28.8121 -4.26509 20.5417
rtibia 44.6311
rfoot -20.6529 -10.0632
rtoes 4.25465
lfemur -30.8754 7.94461 -17.8456
ltibia 42.5783
lfoot -19.6111 -1.78587
ltoes 0.0465178
